<?xml version="1.0" encoding="utf-8"?>
<!-- Generator: Adobe Illustrator 21.1.0, SVG Export Plug-In . SVG Version: 6.00 Build 0)  -->
<svg version="1.1" id="Layer_1" xmlns="http://www.w3.org/2000/svg" xmlns:xlink="http://www.w3.org/1999/xlink" x="0px" y="0px"
	 viewBox="0 0 163.3 163.3" style="enable-background:new 0 0 163.3 163.3;" xml:space="preserve">
<style type="text/css">
	.st0{fill:none;stroke:#000000;stroke-width:5;stroke-linecap:round;stroke-miterlimit:10;}
	.st1{fill:#FFFFFF;stroke:#000000;stroke-width:3;stroke-miterlimit:10;}
	.st2{stroke:#000000;stroke-width:3;stroke-miterlimit:10;}
	.st3{stroke:#000000;stroke-miterlimit:10;}
	.st4{fill:#FFFFFF;}
	.st5{fill:none;stroke:#FFFFFF;stroke-miterlimit:10;}
</style>
<path class="st0" d="M13.4,118.6c0,0,17.8-8.6,71.9-8.6s64.5,8.6,64.5,8.6"/>
<path d="M15.3,87.1v3.7l0.2,23c0,1.3,1.1,2.3,2.3,2.3l0,0c1.3,0,2.3-1,2.3-2.3l0.2-23v-3.7v-1.8v-0.9v-0.8c0.1-2,0.8-3.9,1.9-5.6
	s2.6-3,4.3-4c1.8-0.9,3.7-1.4,5.7-1.4l58.5,0.7l29.3,0.2h3.7h1.8h0.9h0.7c1.8,0.1,3.6,0.7,5.2,1.6s2.9,2.4,3.8,3.9
	c0.9,1.6,1.4,3.4,1.4,5.3l0.2,14.6l0.4,14.6l0,0c0,1.4,1.2,2.5,2.6,2.5h0.7c1.4,0,2.5-1.1,2.6-2.5l0,0l0.4-14.6l0.2-14.6
	c0-3-0.7-6.1-2.2-8.7s-3.6-5-6.2-6.6c-2.6-1.7-5.6-2.6-8.6-2.8l-1.1-0.1h-0.9h-1.8h-3.7l-29.3,0.2L32.3,67c-2.9,0-5.8,0.8-8.3,2.2
	c-2.5,1.5-4.7,3.5-6.2,5.9s-2.4,5.3-2.6,8.2v1.1v0.9L15.3,87.1z"/>
<g>
	<path d="M50.9,43.4c-1.3,0.1-2.6,0.2-4,0.3c-1.4,0.1-2.8,0.2-4.2,0.3h-0.6v-0.7L42,40.7l-0.1-1.3c0-0.1,0-0.2,0-0.4
		c0-0.1,0-0.3,0-0.4s0-0.3,0.1-0.4l0.1-0.4c0.3-1,0.9-2,1.7-2.7c0.8-0.7,1.9-1.2,3.1-1.2c0.6,0,1.1,0.1,1.7,0.2
		c0.5,0.2,1.1,0.5,1.5,0.8c0.4,0.4,0.8,0.8,1.1,1.3c0.3,0.5,0.5,1,0.6,1.6c0.1,0.5,0.1,1.1,0,1.6s-0.1,1-0.2,1.5
		C51.4,41.8,51.1,42.7,50.9,43.4z M50.8,43.2c-0.2-1-0.4-1.9-0.6-2.7c-0.1-0.4-0.2-0.8-0.2-1.1c0-0.2-0.1-0.3-0.1-0.5
		c0-0.1-0.1-0.2-0.1-0.2c0-0.1-0.1-0.1-0.1-0.2c-0.3-0.6-0.7-1.1-1.2-1.4s-1.1-0.5-1.6-0.6c-0.6,0-1.2,0.1-1.8,0.4
		c-0.6,0.3-1,0.9-1.2,1.5l-0.1,0.2c0,0.1,0,0.2-0.1,0.2c0,0.1,0,0.2,0,0.3c0,0.1,0,0.2,0,0.3l-0.1,1.3l-0.1,2.6l-0.7-0.7
		c1.3,0.1,2.6,0.2,3.9,0.3C48,43,49.3,43.1,50.8,43.2z"/>
</g>
<g>
	<g>
		<path class="st1" d="M126.4,61.4l0.1,0.5c1.7,14.8,1.7,29.8-0.1,44.6l0,0c0,3.4-2.7,7.2-6,10.5c-6.6,6.6-15.3,12-24.6,13.3
			c-15.7,2.1-28.6,0.6-39-4c0,0-23.3-10.7-23.3-19.8l-0.4-3.8c-1.2-12.3-1.2-24.7,0-37.1l0.4-4.3C35.1,23.3,124.4,21.7,126.4,61.4z"
			/>
	</g>
	<g>
		<path class="st2" d="M126.5,61.4c0.4,3.7,0.8,7.5,1,11.3s0.3,7.5,0.4,11.3c0,3.8-0.1,7.5-0.3,11.3c-0.2,3.8-0.5,7.5-0.9,11.3l0,0
			c0,1.2-0.3,2.4-0.8,3.5s-1.1,2.1-1.7,3.1c-1.4,2-3,3.7-4.7,5.3c-3.4,3.3-7.2,6.1-11.4,8.3c-2.1,1.1-4.3,2.1-6.5,2.8
			c-0.6,0.2-1.1,0.3-1.7,0.5s-1.2,0.3-1.7,0.4c-0.6,0.1-1.2,0.2-1.8,0.3c-0.6,0.1-1.2,0.2-1.8,0.2c-4.7,0.6-9.4,0.9-14.1,0.8
			s-9.4-0.6-14.1-1.6l-1.7-0.4l-1.7-0.5l-0.4-0.1l-0.4-0.1l-0.8-0.3l-0.8-0.3l-0.8-0.3l-0.8-0.3l-0.4-0.2l-0.4-0.2l-1.7-0.7
			c-1.1-0.5-2.1-1-3.2-1.6c-2.1-1.1-4.2-2.2-6.2-3.4c-2-1.2-4-2.5-5.9-3.9s-3.7-3-5.4-4.8c-0.8-0.9-1.6-1.9-2.2-3s-1.1-2.4-1.1-3.8
			v0.1c-0.4-3.4-0.7-6.9-0.9-10.4c-0.2-3.5-0.4-6.9-0.4-10.4c-0.1-6.9,0.2-13.9,0.8-20.8l0.2-2.6l0.1-1.3l0.1-1.3
			c0.2-1.8,0.5-3.6,1.1-5.3c0.6-1.7,1.4-3.4,2.3-4.9c1-1.5,2.1-3,3.3-4.3c1.2-1.3,2.6-2.5,4-3.6s2.9-2.1,4.5-2.9
			c0.4-0.2,0.8-0.4,1.2-0.6l0.6-0.3l0.6-0.3l1.2-0.6l1.2-0.5L53,36l0.6-0.2l1.2-0.5l1.2-0.4l0.6-0.2l0.6-0.2
			c3.4-1.1,6.8-1.9,10.3-2.4s7-0.8,10.5-0.9c7-0.1,14,0.7,20.8,2.6c0.8,0.2,1.7,0.5,2.5,0.8l1.2,0.4l1.2,0.4l0.6,0.2l0.6,0.2
			l1.2,0.5l1.2,0.5l0.6,0.3l0.6,0.3c1.6,0.8,3.1,1.6,4.6,2.6c1.5,0.9,2.9,2,4.2,3.2c1.3,1.2,2.5,2.4,3.6,3.8s2,2.8,2.8,4.4
			s1.4,3.2,1.8,4.9C126.2,58,126.4,59.7,126.5,61.4z M126.3,61.4c-0.1-1.7-0.4-3.4-0.8-5.1c-0.5-1.7-1.1-3.3-1.9-4.8
			s-1.8-2.9-2.9-4.3c-1.1-1.3-2.3-2.5-3.6-3.6c-0.7-0.5-1.3-1.1-2-1.6c-0.4-0.2-0.7-0.5-1.1-0.7l-1.1-0.7c-1.5-0.9-3-1.7-4.6-2.4
			l-0.6-0.3l-0.6-0.2l-1.2-0.5l-1.2-0.4l-0.6-0.2l-0.6-0.2l-1.2-0.4l-1.2-0.4c-0.8-0.2-1.7-0.4-2.5-0.6c-3.3-0.8-6.7-1.3-10.1-1.6
			c-3.4-0.3-6.8-0.3-10.2-0.2c-3.4,0.1-6.8,0.5-10.2,1.1c-3.4,0.6-6.7,1.4-9.9,2.5L57.6,37L57,37.2l-1.2,0.4l-1.2,0.5L54,38.3
			l-0.6,0.3l-1.2,0.5l-1.1,0.6L50.5,40l-0.6,0.3c-0.4,0.2-0.7,0.4-1.1,0.6c-1.5,0.8-2.9,1.8-4.2,2.8c-1.3,1-2.6,2.1-3.7,3.3
			c-1.1,1.2-2.1,2.5-3,3.9s-1.6,2.9-2.1,4.4l-0.4,1.2c-0.1,0.4-0.2,0.8-0.3,1.2c0,0.2-0.1,0.4-0.1,0.6l-0.1,0.6l-0.1,0.6v0.3v0.3
			l-0.1,1.2l-0.1,1.3l-0.3,2.6c-0.7,6.9-1.1,13.7-1,20.6c0,3.4,0.1,6.9,0.3,10.3c0.2,3.4,0.5,6.9,0.8,10.3v0.1l0,0
			c0,1,0.3,1.9,0.8,2.9c0.5,0.9,1.2,1.8,1.9,2.7c1.5,1.7,3.2,3.2,5,4.6s3.8,2.7,5.7,3.9c2,1.2,4,2.4,6,3.4c1,0.5,2.1,1.1,3.1,1.6
			l1.6,0.7l0.4,0.2l0.4,0.2l0.8,0.3l0.8,0.3l0.8,0.3l0.8,0.3l0.4,0.1l0.4,0.1l1.7,0.5l1.7,0.4c4.5,1.1,9.1,1.6,13.7,1.7
			s9.3-0.1,13.9-0.7c4.6-0.5,9-1.9,13.1-4s7.9-4.8,11.3-8c1.7-1.6,3.3-3.3,4.7-5.1c0.7-0.9,1.3-1.9,1.7-3c0.5-1,0.8-2.1,0.8-3.3l0,0
			c0.5-3.7,0.8-7.5,1.1-11.2c0.3-3.8,0.4-7.5,0.4-11.3s-0.1-7.5-0.3-11.3C127,68.9,126.7,65.2,126.3,61.4z"/>
	</g>
</g>
<g>
	<path d="M56.3,53.8L56.3,53.8c15.7-2.1,31.7-2.1,47.4,0l0,0c6,0,10.9,4.9,10.9,10.9v0.4c1.3,9.8,1.3,19.8,0,29.6l0,0
		c0,6-5.3,10.3-10.9,10.9l0,0c-15.7,2.5-31.7,2.5-47.4,0l0,0c-5.9-0.9-10.9-4.9-10.9-10.9l-0.3-2.5c-0.9-8.2-0.9-16.4,0-24.6
		l0.3-2.9C45.4,58.7,50.3,53.8,56.3,53.8z"/>
</g>
<g>
	<path class="st3" d="M79.9,53l-0.1-5.2l-0.1-5.2c0-0.9-0.1-1.7-0.1-2.6s0-1.7,0-2.6s0.1-1.7,0.1-2.6c0.1-0.9,0.1-1.7,0.2-2.6l0,0
		c0,0,0-0.1,0.1-0.1c0,0,0,0,0,0.1c0.2,0.8,0.4,1.7,0.5,2.6s0.2,1.7,0.2,2.6s0,1.7,0,2.6s-0.1,1.7-0.1,2.6l-0.1,2.6l-0.1,2.6
		c-0.1,1.7-0.2,3.4-0.4,5.2C80,53.1,80,53.1,79.9,53C79.9,53.1,79.9,53.1,79.9,53z"/>
</g>
<g>
	<circle cx="82.9" cy="48.9" r="0.7"/>
</g>
<g>
	<circle cx="82.9" cy="42.7" r="0.7"/>
</g>
<g>
	<circle cx="82.9" cy="36.5" r="0.7"/>
</g>
<g>
	<circle cx="76.6" cy="36.5" r="0.7"/>
</g>
<g>
	<circle cx="76.6" cy="42.7" r="0.7"/>
</g>
<g>
	<circle cx="76.6" cy="48.9" r="0.7"/>
</g>
<g>
	<path class="st3" d="M42.8,93c0.1,1.7,0.2,3.3,0.6,4.9s1,3.2,1.8,4.6c0.9,1.4,2,2.6,3.3,3.5s2.8,1.6,4.4,2.1s3.2,0.8,4.8,1
		c1.6,0.2,3.3,0.4,4.9,0.5c0.8,0.1,1.7,0.1,2.5,0.2l2.5,0.2c1.7,0.1,3.3,0.2,5,0.4c0,0,0.1,0,0.1,0.1c0,0,0,0.1-0.1,0.1
		c-1.7,0.2-3.3,0.3-5,0.4s-3.4,0.1-5,0c-3.4-0.1-6.8-0.7-10-1.9c-1.6-0.6-3.2-1.3-4.5-2.4c-1.4-1-2.5-2.4-3.4-3.9
		c-0.8-1.5-1.4-3.1-1.6-4.8C42.8,96.3,42.7,94.6,42.8,93C42.7,93,42.7,93,42.8,93L42.8,93z"/>
</g>
<g>
	<path class="st3" d="M118.2,63.1c-0.1-2-0.5-3.9-1.5-5.6c-0.9-1.7-2.4-3-4-4c-0.8-0.5-1.7-0.8-2.6-1.1c-0.9-0.3-1.8-0.5-2.8-0.7
		c-0.9-0.2-1.9-0.4-2.9-0.6s-1.9-0.3-2.9-0.5c0,0-0.1,0-0.1-0.1c0,0,0,0,0.1-0.1c1-0.2,2-0.2,3-0.3c0.5,0,1,0,1.5,0.1
		c0.5,0,1,0.1,1.5,0.2c1,0.2,2,0.4,3,0.8s1.9,0.8,2.7,1.4c1.7,1.1,3.2,2.7,4.1,4.5c0.4,0.9,0.7,1.9,0.9,2.9c0.2,1,0.2,2,0.2,3
		C118.3,63.2,118.3,63.2,118.2,63.1C118.2,63.2,118.2,63.2,118.2,63.1z"/>
</g>
<path class="st4" d="M49.5,72.9c-0.1-1-0.2-1.9-0.2-2.8C49.3,58.4,59.4,56,69.8,56C81.9,56,81,56.8,81,58.2c0,1-0.3,2-0.6,2l-1,0.5
	c-2.9-0.1-5.3-0.9-8.5-0.9c-20.4,0-6.3,22.7-21.2,22.7c-1.2,0-1.6-0.7-1.6-1.7c0-1.9,1.3-5,1.3-7.3C49.6,73.3,49.6,73.1,49.5,72.9z"
	/>
<path class="st4" d="M100.2,104.8c2,0.1,1.5-0.6,3.3-0.7c7.4-0.2,9.6-5.1,9.5-10.6c0-1.1,0-3.7-0.7-4.5c-1.4-1.7-2.8,0.3-2.8,2.6
	c0.1,4.3,0.7,9.2-6.2,9.4c-0.7,0-5.1,0.5-5.1,0.5c-0.9,0-4.2,0.4-4.1,1.3c0,0.3,0.2,0.5,0.4,0.8c0.8,0.8,1.9,1.2,3,1.2
	c0.1,0,0.2,0,0.2,0C97.8,104.8,100.2,104.8,100.2,104.8z"/>
<path class="st5" d="M50.3,100.1c0,0,12.4-28.5,62.6-22.3"/>
<path class="st4" d="M103.7,57.6l-0.4,1.1c0,0,0,0.1-0.1,0.1l-1.1,0.4c-0.1,0-0.1,0.1,0,0.2l1,0.7l0,0l0.6,1.2c0,0.1,0.1,0.1,0.2,0
	l0.6-1.3c0,0,0,0,0.1-0.1l0.9-0.4c0.1,0,0.1-0.2,0-0.2l-1.2-0.5c0,0-0.1,0-0.1-0.1l-0.3-1.1C103.8,57.6,103.7,57.5,103.7,57.6z"/>
<path class="st4" d="M91.2,68.8l-0.4,1.1c0,0,0,0.1-0.1,0.1l-1.1,0.4c-0.1,0-0.1,0.1,0,0.2l1,0.7l0,0l0.6,1.2c0,0.1,0.1,0.1,0.2,0
	l0.6-1.3c0,0,0,0,0.1-0.1l0.9-0.4c0.1,0,0.1-0.2,0-0.2L91.8,70c0,0-0.1,0-0.1-0.1l-0.3-1.1C91.3,68.7,91.2,68.7,91.2,68.8z"/>
<path class="st4" d="M94.8,61.8l-0.2,0.5l0,0l-0.5,0.2v0.1l0.5,0.3l0,0l0.3,0.6H95l0.3-0.7l0,0l0.5-0.2v-0.1l-0.6-0.2l0,0L94.8,61.8
	C94.9,61.7,94.8,61.7,94.8,61.8z"/>
<path class="st4" d="M105.4,67.5l-0.3,0.8l0,0l-0.8,0.3c-0.1,0-0.1,0.1,0,0.1l0.7,0.5l0,0l0.4,0.8c0,0.1,0.1,0.1,0.1,0l0.4-0.9l0,0
	l0.7-0.3c0.1,0,0.1-0.1,0-0.1l-0.8-0.3l0,0l-0.2-0.8C105.6,67.4,105.5,67.4,105.4,67.5z"/>
</svg>
